<svg width="133" height="15" viewBox="0 0 133 15" fill="none" xmlns="http://www.w3.org/2000/svg">
<path d="M13.0404 0.607422H0.0537109V4.56335H3.94162V14.2349H9.1525V4.56335H13.0404V0.607422Z" fill="white"/>
<path d="M16.5629 0.607422L11.3115 14.2349H16.6709L19.3303 6.28213L22.0033 14.2349H27.3627L22.1113 0.607422H16.5629Z" fill="white"/>
<path d="M39.0541 0.607422H26.0674V4.56335H29.9553V14.2349H35.1662V4.56335H39.0541V0.607422Z" fill="white"/>
<path d="M42.5785 0.607422L37.3271 14.2349H42.6865L45.3595 6.28213L48.0324 14.2349H53.3918L48.1404 0.607422H42.5785Z" fill="white"/>
<path d="M67.4988 2.4075C68.6057 2.4075 69.5237 2.65304 70.1582 2.9395L70.6712 0.947897C70.1717 0.688715 69.0242 0.361328 67.3908 0.361328C63.2464 0.361328 60.1279 3.06227 60.1279 7.57749C60.1279 11.738 62.7469 14.4526 67.0533 14.4526C68.7002 14.4526 69.9962 14.1252 70.5632 13.8524L70.1582 11.8744C69.4967 12.1609 68.4572 12.3655 67.4718 12.3655C64.4748 12.3655 62.7469 10.4558 62.7469 7.45472C62.7469 4.15356 64.7448 2.4075 67.4853 2.4075" fill="white"/>
<path d="M77.6764 0.552734H76.1645L71.8311 14.2348H74.3825L75.557 10.3607H79.8499L81.0783 14.2348H83.7378L79.3234 0.552734H77.6764ZM77.6764 8.47823H75.935L76.9879 5.10887C77.2309 4.2904 77.4334 3.33553 77.6224 2.54434H77.6629V2.57162C77.8654 3.36281 78.0814 4.2904 78.3379 5.10887L79.4044 8.47823H77.6629H77.6764Z" fill="white"/>
<path d="M93.3766 1.5756C92.6206 0.948112 91.5676 0.579801 90.1501 0.484314C89.9072 0.470672 89.6507 0.457031 89.3942 0.457031C87.7472 0.457031 86.5187 0.579801 85.6143 0.729854V14.2346H88.0712V9.05095C88.4087 9.13279 88.8137 9.16007 89.2862 9.16007C89.5832 9.16007 89.8802 9.14643 90.1637 9.10551C91.5406 8.9691 92.7286 8.49166 93.5656 7.65955C94.3216 6.92293 94.7131 5.87256 94.7131 4.57665C94.7131 3.28075 94.1866 2.23038 93.3901 1.54832L93.3766 1.5756ZM90.1637 7.1139C89.8937 7.16847 89.5967 7.19575 89.2862 7.19575C88.7732 7.19575 88.3952 7.16847 88.0712 7.07298V2.5032C88.3277 2.435 88.8137 2.38043 89.4887 2.38043C89.7317 2.38043 89.9477 2.39407 90.1501 2.435C91.4731 2.62597 92.2426 3.40352 92.2426 4.71307C92.2426 6.02261 91.4731 6.89565 90.1501 7.15483" fill="white"/>
<path d="M99.3171 0.552734H96.8467V14.2348H99.3171V0.552734Z" fill="white"/>
<path d="M111.117 0.552734H100.884V2.63983H104.758V14.2348H107.215V2.63983H111.117V0.552734Z" fill="white"/>
<path d="M116.096 0.552734H114.571L110.237 14.2348H112.789L113.963 10.3607H118.27L119.498 14.2348H122.144L117.73 0.552734H116.096ZM116.096 8.47823H114.355L115.394 5.10887C115.637 4.2904 115.84 3.33553 116.042 2.54434H116.083V2.58526C116.285 3.37645 116.501 4.2904 116.758 5.10887L117.824 8.47823H116.083H116.096Z" fill="white"/>
<path d="M126.491 12.1477V0.552734H124.021V14.2348H132.053V12.1477H126.491Z" fill="white"/>
</svg>
